<svg id="social-media" xmlns="http://www.w3.org/2000/svg" width="32.089" height="32.089" viewBox="0 0 32.089 32.089">
  <defs>
    <style>
      .cls-1 {
        fill: #3850b2;
      }
    </style>
  </defs>
  <path id="Path_121" data-name="Path 121" class="cls-1" d="M27.389,0H4.7A4.706,4.706,0,0,0,0,4.7V27.389a4.706,4.706,0,0,0,4.7,4.7H27.389a4.706,4.706,0,0,0,4.7-4.7V4.7A4.706,4.706,0,0,0,27.389,0ZM16.107,24.443a8.461,8.461,0,1,1,8.461-8.461A8.47,8.47,0,0,1,16.107,24.443ZM25.509,9.4a2.82,2.82,0,1,1,2.82-2.82A2.824,2.824,0,0,1,25.509,9.4Zm0,0" transform="translate(0 0)"/>
  <path id="Path_122" data-name="Path 122" class="cls-1" d="M392.94,90a.94.94,0,1,0,.94.94A.941.941,0,0,0,392.94,90Zm0,0" transform="translate(-367.432 -84.359)"/>
  <path id="Path_123" data-name="Path 123" class="cls-1" d="M158.581,150a6.581,6.581,0,1,0,6.581,6.581A6.589,6.589,0,0,0,158.581,150Zm0,0" transform="translate(-142.473 -140.599)"/>
</svg>
